<svg xmlns="http://www.w3.org/2000/svg" width="120" height="40" fill="none"><g clip-path="url(#a)"><mask id="b" width="116" height="40" x="2" y="0" maskUnits="userSpaceOnUse" style="mask-type:luminance"><path fill="#fff" d="M117.556 0H2v39.162h115.556z"/></mask><g mask="url(#b)"><path fill="url(#c)" d="m62.497 8.216-2.206-1.703a.24.24 0 0 0-.292 0l-2.246 1.644a.244.244 0 0 1-.374-.274l.94-2.624a.25.25 0 0 0-.088-.274L55.97 3.36a.243.243 0 0 1 .15-.44L58.902 3a.245.245 0 0 0 .24-.17l.846-2.654a.24.24 0 0 1 .233-.173.24.24 0 0 1 .232.173l.784 2.675a.24.24 0 0 0 .234.174l2.889-.072c.24 0 .234.368.035.502l-2.3 1.572a.24.24 0 0 0-.095.274l.874 2.646a.243.243 0 0 1-.378.274"/><path fill="url(#d)" d="m72.528 7.238-1.8-1.388a.2.2 0 0 0-.237 0l-1.829 1.343a.199.199 0 0 1-.304-.226l.764-2.137a.195.195 0 0 0-.07-.227l-1.842-1.33a.197.197 0 0 1 .12-.357l2.27.066a.2.2 0 0 0 .193-.137l.685-2.162a.2.2 0 0 1 .19-.14.2.2 0 0 1 .19.14l.642 2.18a.2.2 0 0 0 .19.137l2.27-.011a.197.197 0 0 1 .112.36l-1.875 1.295a.196.196 0 0 0-.075.226l.711 2.154a.197.197 0 0 1-.191.261.2.2 0 0 1-.117-.041"/><path fill="url(#e)" d="M51.624 7.238 49.829 5.85a.2.2 0 0 0-.239 0l-1.829 1.343a.199.199 0 0 1-.304-.226l.764-2.137a.2.2 0 0 0-.07-.227l-1.843-1.33a.198.198 0 0 1 .121-.357l2.27.066a.2.2 0 0 0 .194-.137l.685-2.162a.199.199 0 0 1 .38 0l.645 2.18a.2.2 0 0 0 .19.137l2.27-.011a.198.198 0 0 1 .113.36l-1.878 1.295a.2.2 0 0 0-.077.226l.713 2.154a.198.198 0 0 1-.31.22"/><path fill="url(#f)" d="m42.268 6.365-1.435-1.107a.156.156 0 0 0-.19 0l-1.46 1.073a.157.157 0 0 1-.243-.181l.61-1.706a.156.156 0 0 0-.056-.182l-1.67-1.058a.157.157 0 0 1 .001-.26.16.16 0 0 1 .096-.026l2.01.053a.16.16 0 0 0 .155-.11l.548-1.726a.16.16 0 0 1 .151-.11.16.16 0 0 1 .152.11l.508 1.739a.16.16 0 0 0 .154.113l1.811-.008a.158.158 0 0 1 .09.288l-1.497 1.022a.16.16 0 0 0-.06.18l.575 1.722a.158.158 0 0 1-.246.174"/><path fill="url(#g)" d="m81.054 6.416-1.435-1.107a.16.16 0 0 0-.19 0l-1.46 1.073a.157.157 0 0 1-.242-.181l.61-1.706a.156.156 0 0 0-.057-.181l-1.472-1.058a.158.158 0 0 1 .098-.286l1.811.052a.16.16 0 0 0 .155-.11l.548-1.725a.16.16 0 0 1 .303 0l.508 1.739a.16.16 0 0 0 .154.113l1.811-.008a.157.157 0 0 1 .09.288L80.79 4.34a.16.16 0 0 0-.06.18l.569 1.72a.158.158 0 0 1-.247.175"/><path fill="url(#h)" d="M2 35.75c0-2.17 1.254-3.403 3.26-3.403 1.83 0 3.056 1.185 3.056 2.733v.04H6.464v-.054c-.054-.653-.482-1.14-1.199-1.14-.793 0-1.29.664-1.29 1.818 0 1.172.497 1.838 1.295 1.838.665 0 1.14-.453 1.204-1.145v-.05h1.851v.048c0 1.54-1.254 2.721-3.064 2.721C3.241 39.16 2 37.92 2 35.75"/><path fill="url(#i)" d="M14.05 32.46h2.433l2.147 6.578h-2.04l-.342-1.308h-1.97l-.341 1.308h-2.034zm.584 3.91h1.26l-.612-2.341h-.033z"/><path fill="url(#j)" d="M22.39 37.131v-.086h1.781l.01.04c.078.357.525.594 1.072.594.58 0 .934-.237.934-.566 0-.31-.264-.438-.993-.57l-.662-.12c-1.309-.23-2.024-.893-2.024-1.918 0-1.322 1.14-2.156 2.7-2.156 1.759 0 2.693.785 2.748 2.015v.1h-1.781v-.045c-.037-.36-.421-.588-.95-.588s-.807.232-.807.533c0 .298.284.439.94.557l.66.119c1.41.255 2.08.83 2.08 1.896 0 1.358-1.057 2.22-2.877 2.22-1.705.004-2.762-.725-2.831-2.025"/><path fill="url(#k)" d="M32.438 32.46h1.934v6.578h-1.934z"/><path fill="url(#l)" d="M38.908 32.46h1.61l2.33 3.366h.032v-3.365h1.933v6.577h-1.596l-2.343-3.425h-.033v3.425h-1.934z"/><path fill="url(#m)" d="M49.185 35.75c0-2.098 1.28-3.403 3.31-3.403s3.315 1.305 3.315 3.403-1.272 3.406-3.32 3.406-3.305-1.299-3.305-3.406m4.659 0c0-1.132-.53-1.824-1.35-1.824s-1.343.683-1.343 1.824c0 1.136.529 1.829 1.34 1.829.839.004 1.354-.703 1.354-1.83z"/><path fill="url(#n)" d="M65.435 35.75c0-2.098 1.281-3.403 3.31-3.403s3.32 1.309 3.32 3.403c0 2.097-1.272 3.406-3.32 3.406s-3.31-1.299-3.31-3.406m4.659 0c0-1.132-.529-1.824-1.35-1.824-.82 0-1.341.685-1.341 1.824 0 1.136.529 1.829 1.341 1.829.836.004 1.351-.703 1.351-1.83z"/><path fill="url(#o)" d="M76.441 32.46h1.61l2.33 3.366h.031v-3.365h1.934v6.577h-1.597l-2.344-3.425h-.032v3.425h-1.932z"/><path fill="url(#p)" d="M86.877 32.46h1.934v5.05h2.581v1.528h-4.515z"/><path fill="url(#q)" d="M95.746 32.46h1.934v6.578h-1.934z"/><path fill="url(#r)" d="M102.215 32.46h1.61l2.33 3.366h.031v-3.365h1.935v6.577h-1.596l-2.345-3.425h-.031v3.425h-1.934z"/><path fill="url(#s)" d="M112.653 32.46h4.64v1.533h-2.707v1.048h2.54v1.424h-2.54v1.044h2.707v1.53h-4.64z"/><path fill="#80491F" d="m89.632 8.48-.535-.09q.272.015.535.09"/><path fill="#FBD84A" d="m89.632 8.48-.535-.09q.272.015.535.09"/><path fill="#fff" d="M95.907 1.644a7 7 0 0 0-4.004 1.174c-1.823 1.234-2.668 3.056-3.212 4.907-1.173.158-2.553 1.082-3.07 2.268-.794.106-1.18.151-1.892.411a10.4 10.4 0 0 0-3.789 2.342c-1.277-.104-2.782.086-4.01.813-.324.201.014 2.217.273 2.77q.052.102.11.205.036.106.084.21c.177.372.448.693.787.928a9.4 9.4 0 0 0-.212 2.34v.02c0 .173.015.347.027.517a.4.4 0 0 1 0 .057q.02.235.048.47c0 .022.01.05.013.075.02.146.042.294.07.436 0 .026.01.056.017.087q.04.206.088.41l.023.088c.035.137.07.266.11.396q.013.05.026.09.06.196.127.38c.013.03.021.065.033.095q.07.18.146.362l.035.09q.078.178.163.351.02.043.043.086.085.172.178.339l.045.082q.094.168.196.329.022.036.045.075c.07.108.137.217.216.322.017.022.032.047.047.065.076.108.158.213.236.319l.043.055a11 11 0 0 0 .602.685c.138.145.287.282.435.411.157.59.411 1.115.685 1.322a.4.4 0 0 0 .048.032c.239.137.685.108 1.165-.028q.084.046.168.087c.056.026.151.075.23.112q.082.036.162.076.124.047.243.098l.159.065c.082.03.167.063.25.09l.155.053q.13.045.262.083l.148.045c.09.023.178.048.274.07l.145.033q.14.031.274.06l.138.023c.093.02.187.034.273.05l.137.017q.14.02.286.033h.032q.546.063 1.097.06c6.082 0 10.02-3.706 10.54-8.456q.263-.263.475-.568a2.57 2.57 0 0 0 .388-2.285q-.009-.038-.022-.076c-.231-.832-.852-1.517-1.604-2.068a8.98 8.98 0 0 0-3.682-4.029 3 3 0 0 0-.226-1.82c2.483.15 4.522-.719 6.817-2.77 1.437-1.287 2.307-1.919 3.575-2.928h.007l.085-.068c-2.463-1.45-4.655-2.373-6.761-2.373"/><path fill="#000" fill-rule="evenodd" d="m101.825 4.139-.22.18v.006c-1.08.864-1.878 1.47-3.163 2.502-2.512 2.026-4.933 3.07-7.98 2.134a5.7 5.7 0 0 1-1.248-.522q.105-.18.239-.338c2.303-3.152 6.303-4.214 12.379-3.957" clip-rule="evenodd"/><path fill="url(#t)" d="M101.832 4.118c-6.073-.258-10.076.799-12.38 3.956q-.133.16-.238.338c.462-1.947 1.349-3.9 3.266-5.207a5.95 5.95 0 0 1 3.415-1.014c1.797 0 3.815.676 5.937 1.93"/><path fill="#80491F" d="M96.432 19.514c0 4.96-3.837 9.002-10.015 9.002a9 9 0 0 1-1.036-.058q.362.031.725.033h.304c.103 0 .223-.01.329-.015a1 1 0 0 0 .082 0c4.784-.344 8.274-4.69 8.244-9.647-.015-2.143-1.187-5.248-3.563-6.68.274-1.325-.366-3.075-1.666-3.631a2 2 0 0 0-.203-.076 2.4 2.4 0 0 0-.535-.09h-.038c2.218.108 3.19 2.003 2.861 3.534 2.678 1.576 4.507 4.396 4.507 7.646"/><path fill="url(#u)" d="M95.084 18.853c.03 4.957-3.46 9.303-8.243 9.647a1 1 0 0 1-.083 0c-.105 0-.216.013-.328.015-.113.003-.202 0-.305 0q-.361-.001-.725-.032c-4.204-.384-8.234-4.06-7.79-9.593.335-4.196 3.692-7.866 8.488-8.506.537-1.234 1.711-2.031 2.877-2.031a.4.4 0 0 1 .058 0h.093l.535.09q.103.031.203.076c1.3.556 1.94 2.306 1.666 3.63 2.372 1.432 3.543 4.538 3.563 6.681"/><path fill="#80491F" d="M84.833 15.8q-.034-.049-.07-.094c-.024-.03-.04-.05-.06-.071a.55.55 0 0 0-.452-.223h-.033a.6.6 0 0 0-.323.098.4.4 0 0 0-.106.103q-.039.04-.082.093c-.374.484-.522 1.37-1.077 1.706-.646.392-1.86.441-2.542.434-1.247-.008-2.527-.22-3.124-1.27a1.3 1.3 0 0 1-.081-.175c.637.9 1.837 1.09 3.014 1.096.686 0 1.9-.045 2.545-.437.548-.336.7-1.224 1.079-1.706a.6.6 0 0 1 .078-.09.548.548 0 0 1 .432-.206.57.57 0 0 1 .482.223l.06.073q.15.21.259.444M95.661 18.49c-.644-1.057-1.85-2.36-3.942-2.541a3 3 0 0 1-.21.627c-.6 1.05-1.876 1.262-3.123 1.27-.685.007-1.896-.042-2.544-.434-.263-.16-.439-.447-.587-.758.1.166.235.306.396.411.646.392 1.86.44 2.542.438 1.247-.01 2.527-.224 3.124-1.27q.17-.363.245-.756.202.037.389.085c2.263.573 3.375 2.124 3.71 2.93"/><path fill="#000" d="M97.132 17.967a1 1 0 0 0-.022-.073c-.658-2.233-4.498-3.342-5.446-3.583a.67.67 0 0 0-.09-.356c-1.524-.76-2.792-.794-4.446-.51-.882.15-2.014.492-2.366.66-.228.119-.48.18-.737.181a4 4 0 0 1-.74-.18 15 15 0 0 0-2.363-.661c-1.397-.248-2.925-.25-4.446.51-.321.168.015 1.854.274 2.315.033.057.068.117.108.172.637.9 1.838 1.09 3.015 1.096.685 0 1.899-.045 2.544-.437.548-.336.7-1.224 1.079-1.706a1 1 0 0 1 .078-.09.549.549 0 0 1 .432-.205.57.57 0 0 1 .482.222l.06.073q.15.21.26.444.182.44.422.85c.098.167.233.307.395.412.646.392 1.86.44 2.542.437 1.247-.01 2.527-.224 3.124-1.27q.172-.362.244-.755c.137.023.263.053.39.085 2.263.572 3.374 2.123 3.71 2.93.343.647.574 1.347.685 2.071q.245-.222.426-.499a2.29 2.29 0 0 0 .384-2.136"/><path fill="#E3E2E2" d="M90.907 14.6a6 6 0 0 1-.211.959c0 .015-.008.03-.015.05l-.02.076c-.006.025-.01.03-.016.045q-.037.121-.087.236c-.09-.173-.806-1.49-1.37-2.138l1.206.246s.549.098.513.527M82.663 14.696a6 6 0 0 1-.212.959c0 .015-.008.033-.015.05a1 1 0 0 0-.02.08c-.006.028-.01.03-.016.043q-.037.12-.088.234c-.09-.171-.805-1.49-1.37-2.136l1.205.246s.548.098.516.527M90.433 16.214a2 2 0 0 1-.154.224l-1.312-2.367zM82.193 16.31a2 2 0 0 1-.155.224l-1.312-2.364z"/><path fill="#fff" d="M86.808 19.692a3 3 0 0 1-.09.262 2.22 2.22 0 0 1-1.549 1.398 5.2 5.2 0 0 1-2.35.04 2.7 2.7 0 0 1-.592-.195c-.566-.258-.73-.528-.61-1.109q.023-.113.06-.242c1.63.524 3.215.393 4.845-.088h.02z"/><path fill="#A5A5A4" d="M86.815 19.673a3 3 0 0 1-.096.285c-2.547.924-4.556.33-5.102.137q.023-.112.06-.243c1.728.555 3.404.377 5.138-.176"/><path fill="#A11006" d="M88.927 19.007a.25.25 0 0 0-.22-.212.25.25 0 0 0-.108.012 8 8 0 0 0-1.126.418c-.93.39-1.386.529-2.73.72a6.55 6.55 0 0 1-4.133-.77c-.11-.06-.285-.147-.399-.035a.21.21 0 0 0-.05.2c.052.147.238.185.355.177.594-.034.808.35.875.822q.033.271.099.536c0 .01.153 1.285 2.142 1.313 0 0 2.184.148 2.772-1.003.196-.328.305-.686.48-1.02a1.32 1.32 0 0 1 1.257-.741c.192.023.386 0 .568-.066a.31.31 0 0 0 .219-.35m-2.113.665v.023a3 3 0 0 1-.09.262 2.22 2.22 0 0 1-1.55 1.398 5.2 5.2 0 0 1-2.35.04 2.7 2.7 0 0 1-.591-.195c-.566-.258-.73-.528-.61-1.109q.023-.113.06-.242c1.631.525 3.215.393 4.844-.087q.147-.042.294-.09"/><path fill="#000" d="M85.175 17.755a2.4 2.4 0 0 1-1.112.389 1.54 1.54 0 0 1-1.058-.387c-.2-.161-.226.09-.149.176.42.344.778.48 1.218.463.44-.018.781-.202 1.207-.46.072-.079.048-.235-.106-.181"/><path fill="#80491F" d="M87.284 24.176c.567.738.561 2.968-.147 3.372-.507.29-1.7-.25-2.388-.892.65.702 1.988 1.35 2.535 1.037.763-.435.71-2.996 0-3.517"/><path fill="#000" d="M87.284 24.176a.7.7 0 0 0-.146-.145c-.514-.377-1.888.327-2.544 1.062a.4.4 0 0 1 .074.197q.005.06 0 .119a.31.31 0 0 0-.114-.225l-.026-.02a.8.8 0 0 0-.218-.09q-.12-.03-.244-.03a.87.87 0 0 0-.456.128l-.051.04a.3.3 0 0 0-.104.215 1 1 0 0 1 0-.106.4.4 0 0 1 .086-.224c-.655-.736-2.033-1.443-2.55-1.067-.695.509-.76 2.974-.046 3.486a.3.3 0 0 0 .046.032c.548.31 1.87-.33 2.524-1.026q.024-.025.044-.048a.4.4 0 0 1-.071-.224 1 1 0 0 1 0-.112.3.3 0 0 0 .093.205l.056.043.02.01a.9.9 0 0 0 .412.104.95.95 0 0 0 .437-.106.37.37 0 0 0 .18-.274.6.6 0 0 1 0 .115.36.36 0 0 1-.11.237q.034.04.071.077l.008.008q.045.047.095.094c.685.64 1.881 1.182 2.388.892.709-.412.714-2.634.147-3.373"/><g opacity=".6"><mask id="v" width="8" height="4" x="80" y="24" maskUnits="userSpaceOnUse" style="mask-type:luminance"><path fill="#fff" d="M87.695 24.097h-7.243v3.467h7.243z" opacity=".6"/></mask><g mask="url(#v)"><mask id="w" width="8" height="4" x="80" y="24" maskUnits="userSpaceOnUse" style="mask-type:luminance"><path fill="#fff" d="M87.143 27.488c-.548.298-1.918-.333-2.564-1.001a.32.32 0 0 0 .111-.222.5.5 0 0 0 0-.107.35.35 0 0 1-.18.258.7.7 0 0 1-.362.098h-.137a.7.7 0 0 1-.44-.152.27.27 0 0 1-.093-.192 1 1 0 0 0 0 .106.35.35 0 0 0 .086.203c-.638.67-2.011 1.303-2.568 1.005-.763-.41-.71-2.806 0-3.288.515-.354 1.895.31 2.55.999a.35.35 0 0 0-.086.21 1 1 0 0 0 0 .098.28.28 0 0 1 .103-.202q.024-.02.05-.037a.7.7 0 0 1 .398-.12h.137c.137 0 .272.04.388.114l.026.017a.3.3 0 0 1 .113.211.5.5 0 0 0 0-.112.36.36 0 0 0-.072-.184c.656-.685 2.03-1.347 2.544-.994.71.486.764 2.884 0 3.288" opacity=".6"/></mask><g mask="url(#w)"><path fill="url(#x)" d="M87.906 23.844h-7.665v3.943h7.665z"/></g></g></g><g style="mix-blend-mode:multiply"><mask id="y" width="1" height="1" x="89" y="7" maskUnits="userSpaceOnUse" style="mask-type:luminance"><path fill="#fff" d="M89.168 7.986h-.027v.007h.027z" style="mix-blend-mode:multiply"/></mask><g mask="url(#y)"><path fill="#fff" d="M89.167 7.991h-.026a.1.1 0 0 0 .021 0"/></g></g><path fill="url(#z)" stroke="#fff" stroke-miterlimit="10" stroke-width=".555" d="M23.453 28.878V9.303l-.685-.108c-1.837-.285-2.31-.369-3.967-.644l-.812-.137-5.058 11.714L7.696 6.282s-3.162-.816-4.505-1.183l-.746-.207c-.019 0-.038 23.98-.038 23.98l5.287.007v-9.702l3.664 9.7h3.128l3.7-9.704v9.702z"/><path fill="url(#A)" stroke="#fff" stroke-miterlimit="10" stroke-width=".555" d="M31.282 10.56c-1.466-.175-2.674-.435-4.45-.686l-.719-.101v19.102l5.7.01V10.637z"/><path fill="url(#B)" stroke="#fff" stroke-miterlimit="10" stroke-width=".555" d="m40.135 24.424.009-12.857-.621-.054a201 201 0 0 1-4.46-.42l-.7-.076v17.869h14.565v-4.462s-6.045.017-8.793 0Z"/><path fill="url(#C)" stroke="#fff" stroke-miterlimit="10" stroke-width=".555" d="m57.259 24.4-.014-12.132h-.615a196 196 0 0 1-4.477-.083l-.644-.02v16.717l14.441-.015v-4.454z"/><path fill="url(#D)" d="m69.214 12.127-.585.028v16.717l5.73.008V11.907l-.675.032c-1.488.103-2.991.12-4.47.19"/><path stroke="#fff" stroke-miterlimit="10" stroke-width=".555" d="m69.214 12.127-.585.028v16.717l5.73.008V11.907l-.675.032c-1.488.103-2.991.12-4.47.19"/><path fill="url(#E)" stroke="#fff" stroke-miterlimit="10" stroke-width=".555" d="M115.976 5.354c-1.398.368-2.822.74-4.235 1.067l-.226.05v11.18l-6.676-9.827-1.48.298c-1.152.23-2.329.455-3.498.667l-.729.137v19.957h5.707l.041-9.514 6.646 9.53h5.72l-.017-23.867z"/></g></g><defs><linearGradient id="c" x1="60.205" x2="60.205" y1="8.268" y2="0" gradientUnits="userSpaceOnUse"><stop stop-color="#C77F1A"/><stop offset="1" stop-color="#EDC034"/></linearGradient><linearGradient id="d" x1="70.642" x2="70.642" y1="7.279" y2=".547" gradientUnits="userSpaceOnUse"><stop stop-color="#C77F1A"/><stop offset="1" stop-color="#EDC034"/></linearGradient><linearGradient id="e" x1="49.742" x2="49.742" y1="7.279" y2=".547" gradientUnits="userSpaceOnUse"><stop stop-color="#C77F1A"/><stop offset="1" stop-color="#EDC034"/></linearGradient><linearGradient id="f" x1="40.666" x2="40.666" y1="6.399" y2="1.022" gradientUnits="userSpaceOnUse"><stop stop-color="#C77F1A"/><stop offset="1" stop-color="#EDC034"/></linearGradient><linearGradient id="g" x1="79.55" x2="79.55" y1="6.45" y2="1.073" gradientUnits="userSpaceOnUse"><stop stop-color="#C77F1A"/><stop offset="1" stop-color="#EDC034"/></linearGradient><linearGradient id="h" x1="5.163" x2="5.163" y1="39.16" y2="32.343" gradientUnits="userSpaceOnUse"><stop stop-color="#CB9337"/><stop offset="1" stop-color="#EBC646"/></linearGradient><linearGradient id="i" x1="15.263" x2="15.263" y1="39.042" y2="32.462" gradientUnits="userSpaceOnUse"><stop stop-color="#CB9337"/><stop offset="1" stop-color="#EBC646"/></linearGradient><linearGradient id="j" x1="25.24" x2="25.24" y1="39.16" y2="32.343" gradientUnits="userSpaceOnUse"><stop stop-color="#CB9337"/><stop offset="1" stop-color="#EBC646"/></linearGradient><linearGradient id="k" x1="33.406" x2="33.406" y1="39.042" y2="32.462" gradientUnits="userSpaceOnUse"><stop stop-color="#CB9337"/><stop offset="1" stop-color="#EBC646"/></linearGradient><linearGradient id="l" x1="41.859" x2="41.859" y1="39.042" y2="32.462" gradientUnits="userSpaceOnUse"><stop stop-color="#CB9337"/><stop offset="1" stop-color="#EBC646"/></linearGradient><linearGradient id="m" x1="52.501" x2="52.501" y1="39.16" y2="32.343" gradientUnits="userSpaceOnUse"><stop stop-color="#CB9337"/><stop offset="1" stop-color="#EBC646"/></linearGradient><linearGradient id="n" x1="68.75" x2="68.75" y1="39.16" y2="32.343" gradientUnits="userSpaceOnUse"><stop stop-color="#CB9337"/><stop offset="1" stop-color="#EBC646"/></linearGradient><linearGradient id="o" x1="79.392" x2="79.392" y1="39.042" y2="32.462" gradientUnits="userSpaceOnUse"><stop stop-color="#CB9337"/><stop offset="1" stop-color="#EBC646"/></linearGradient><linearGradient id="p" x1="89.136" x2="89.136" y1="39.042" y2="32.462" gradientUnits="userSpaceOnUse"><stop stop-color="#CB9337"/><stop offset="1" stop-color="#EBC646"/></linearGradient><linearGradient id="q" x1="96.713" x2="96.713" y1="39.042" y2="32.462" gradientUnits="userSpaceOnUse"><stop stop-color="#CB9337"/><stop offset="1" stop-color="#EBC646"/></linearGradient><linearGradient id="r" x1="105.165" x2="105.165" y1="39.042" y2="32.462" gradientUnits="userSpaceOnUse"><stop stop-color="#CB9337"/><stop offset="1" stop-color="#EBC646"/></linearGradient><linearGradient id="s" x1="114.972" x2="114.972" y1="39.042" y2="32.462" gradientUnits="userSpaceOnUse"><stop stop-color="#CB9337"/><stop offset="1" stop-color="#EBC646"/></linearGradient><linearGradient id="t" x1="101.81" x2="89.214" y1="3.971" y2="3.971" gradientUnits="userSpaceOnUse"><stop stop-color="#CD8C15"/><stop offset=".302" stop-color="#FBD84A"/><stop offset=".656" stop-color="#C57F0D"/></linearGradient><linearGradient id="u" x1="95.102" x2="77.577" y1="18.483" y2="18.483" gradientUnits="userSpaceOnUse"><stop stop-color="#C57F0D"/><stop offset="1" stop-color="#FBD84A"/></linearGradient><linearGradient id="x" x1="84.279" x2="84.279" y1="23.77" y2="28.081" gradientUnits="userSpaceOnUse"><stop offset=".03" stop-color="#F1EFAC"/><stop offset=".589" stop-opacity="0"/><stop offset="1" stop-opacity="0"/></linearGradient><linearGradient id="z" x1="12.928" x2="12.928" y1="28.875" y2="4.888" gradientUnits="userSpaceOnUse"><stop stop-color="#AA1917"/><stop offset=".771" stop-color="#E42A28"/></linearGradient><linearGradient id="A" x1="28.963" x2="28.963" y1="28.883" y2="9.77" gradientUnits="userSpaceOnUse"><stop stop-color="#AA1917"/><stop offset=".771" stop-color="#E42A28"/></linearGradient><linearGradient id="B" x1="41.643" x2="41.643" y1="28.883" y2="11.014" gradientUnits="userSpaceOnUse"><stop stop-color="#AA1917"/><stop offset=".771" stop-color="#E42A28"/></linearGradient><linearGradient id="C" x1="58.728" x2="58.728" y1="28.879" y2="12.161" gradientUnits="userSpaceOnUse"><stop stop-color="#AA1917"/><stop offset=".771" stop-color="#E42A28"/></linearGradient><linearGradient id="D" x1="71.494" x2="71.494" y1="28.878" y2="11.904" gradientUnits="userSpaceOnUse"><stop stop-color="#AA1917"/><stop offset=".771" stop-color="#E42A28"/></linearGradient><linearGradient id="E" x1="108.187" x2="108.187" y1="28.894" y2="5.028" gradientUnits="userSpaceOnUse"><stop stop-color="#AA1917"/><stop offset=".771" stop-color="#E42A28"/></linearGradient><clipPath id="a"><path fill="#fff" d="M2 0h115.556v40H2z"/></clipPath></defs></svg>